<svg width="9" height="10" viewBox="0 0 9 10" fill="none" xmlns="http://www.w3.org/2000/svg">
<path d="M2.8652 1.29065C3.27609 -0.429882 5.72402 -0.429882 6.1349 1.29065C6.25478 1.79263 6.59863 2.21171 7.06753 2.42733L7.81723 2.77207C9.39432 3.49728 9.39432 5.73843 7.81723 6.46364L7.06753 6.80838C6.59863 7.024 6.25478 7.44308 6.1349 7.94507C5.72402 9.6656 3.27609 9.6656 2.8652 7.94507C2.74532 7.44308 2.40147 7.024 1.93257 6.80838L1.18287 6.46364C-0.394219 5.73844 -0.39422 3.49728 1.18287 2.77207L1.93257 2.42733C2.40147 2.21172 2.74532 1.79263 2.8652 1.29065Z" fill="#FAEFE4"/>
</svg>
