<svg width="17" height="18" viewBox="0 0 17 18" fill="none" xmlns="http://www.w3.org/2000/svg">
<path d="M6.57235 1.45915C7.12106 -0.486445 9.87894 -0.486448 10.4277 1.45914L11.2202 4.26919C11.3908 4.8741 11.8354 5.36384 12.4211 5.59189L15.7239 6.87791C17.4254 7.54044 17.4254 9.9481 15.7239 10.6106L12.4211 11.8966C11.8354 12.1247 11.3908 12.6144 11.2202 13.2194L10.4277 16.0294C9.87894 17.975 7.12106 17.975 6.57235 16.0294L5.77984 13.2194C5.60924 12.6144 5.16457 12.1247 4.5789 11.8966L1.27612 10.6106C-0.425393 9.9481 -0.425395 7.54044 1.27612 6.87791L4.5789 5.59189C5.16457 5.36384 5.60924 4.8741 5.77984 4.26919L6.57235 1.45915Z" fill="#FAEFE4"/>
</svg>
