<svg width="43" height="45" viewBox="0 0 43 45" fill="none" xmlns="http://www.w3.org/2000/svg">
<path d="M19.5849 1.40527C20.1744 -0.468115 22.8256 -0.468111 23.4152 1.40527L27.5661 14.5948C27.7564 15.1996 28.2211 15.6789 28.8197 15.8878L41.6537 20.3661C43.4488 20.9925 43.4488 23.5311 41.6537 24.1574L28.8197 28.6357C28.2211 28.8446 27.7564 29.3239 27.5661 29.9287L23.4152 43.1183C22.8256 44.9916 20.1744 44.9916 19.5849 43.1183L15.434 29.9287C15.2436 29.3239 14.7789 28.8446 14.1803 28.6357L1.34628 24.1574C-0.448765 23.5311 -0.448762 20.9925 1.34628 20.3661L14.1803 15.8878C14.7789 15.6789 15.2436 15.1996 15.434 14.5948L19.5849 1.40527Z" fill="#FAEFE4"/>
</svg>
