<svg width="193" height="79" viewBox="0 0 193 79" fill="none" xmlns="http://www.w3.org/2000/svg">
<path d="M191.996 0C192.55 0.000154692 193 0.44974 193 1.00431V77.5417C193 78.0963 192.55 78.5458 191.996 78.546H1.00431C0.449755 78.5459 0 78.0963 0 77.5417V1.00431C4.06396e-08 0.449726 0.449757 0.000132477 1.00431 0H191.996ZM14.179 29.173C13.8316 29.1732 13.589 29.5178 13.7063 29.8449L19.5252 46.0648C19.672 46.4741 20.2343 46.5163 20.4402 46.1335L24.8302 37.9745C25.0197 37.6222 25.5243 37.6222 25.7138 37.9745L30.1401 46.1992C30.3403 46.571 30.8823 46.5447 31.0453 46.1551L37.8607 29.8694C37.9992 29.5385 37.7554 29.173 37.3968 29.173H14.179Z" fill="#374F47"/>
</svg>
